<svg xmlns="http://www.w3.org/2000/svg" viewBox="0 0 100 100">
  <defs>
    <linearGradient id="blade" x1="0%" y1="0%" x2="100%" y2="0%">
      <stop offset="0%" stop-color="#b89030"/>
      <stop offset="45%" stop-color="#f8e060"/>
      <stop offset="100%" stop-color="#b89030"/>
    </linearGradient>
    <linearGradient id="guard" x1="0%" y1="0%" x2="0%" y2="100%">
      <stop offset="0%" stop-color="#e8c84a"/>
      <stop offset="100%" stop-color="#8a6020"/>
    </linearGradient>
  </defs>

  <!-- Background -->
  <rect width="100" height="100" rx="22" fill="#11141a"/>

  <!-- Heart -->
  <path d="M50 49 C50 45 43 37 35 37 C22 37 22 52 22 52 C22 66 50 80 50 80 C50 80 78 66 78 52 C78 52 78 37 65 37 C57 37 50 45 50 49Z" fill="#c8484f"/>
  <!-- Heart sheen -->
  <path d="M37 40 C33 40 28 44 27 49 C29 45 33 42 38 41 C41 40 40 39 37 40Z" fill="#fff" opacity="0.18"/>

  <!-- Dagger blade -->
  <polygon points="50,5 56,54 50,62 44,54" fill="url(#blade)"/>
  <!-- Blade edge highlight -->
  <polygon points="50,7 52,51 50,59 49,51" fill="#fff" opacity="0.22"/>

  <!-- Guard -->
  <rect x="29" y="59" width="42" height="8" rx="4" fill="url(#guard)"/>
  <!-- Guard gems -->
  <circle cx="36" cy="63" r="2.5" fill="#c8484f" opacity="0.9"/>
  <circle cx="64" cy="63" r="2.5" fill="#c8484f" opacity="0.9"/>

  <!-- Handle -->
  <rect x="44" y="67" width="12" height="21" rx="3" fill="#6a3e14"/>
  <rect x="44" y="72" width="12" height="2" rx="1" fill="#3a2008" opacity="0.65"/>
  <rect x="44" y="77" width="12" height="2" rx="1" fill="#3a2008" opacity="0.65"/>
  <rect x="44" y="82" width="12" height="2" rx="1" fill="#3a2008" opacity="0.65"/>

  <!-- Pommel -->
  <ellipse cx="50" cy="91" rx="7" ry="6" fill="#b89030"/>
  <ellipse cx="48" cy="90" rx="3" ry="2" fill="#f0d860" opacity="0.45"/>
</svg>
